<svg width="407" height="321" viewBox="0 0 407 321" fill="none" xmlns="http://www.w3.org/2000/svg">
<g clip-path="url(#clip0_4227_2281)">
<path opacity="0.18" d="M361.05 309.73C382.22 301.73 401.36 284.62 405.51 262.36C408.93 244 401.88 225.36 393.31 208.75C384.74 192.14 374.36 176.09 370.36 157.85C362.91 123.93 378.28 86.3 363.68 54.79C359.29 45.33 352.43 37.17 344.68 30.22C310.79 -0.0600052 259.9 -6.84 216.49 6.55C173.08 19.94 136.84 51.2 110.18 87.98C99.18 103.14 89.62 119.33 77.63 133.7C61.65 152.84 40.91 169.64 33.97 193.55C28.92 210.83 31.97 229.55 37.97 246.55C47.2 272.61 86.97 318.96 105.9 318.87C148.09 318.66 229.04 320.73 268.15 319.23C297.45 318.08 330.38 321.31 361.05 309.73Z" fill="#2A2879"/>
<path d="M180.2 274.62C179.2 277.47 178.32 280.74 179.77 283.39C180.74 284.867 182.045 286.094 183.58 286.97L197.38 296.35C200.03 298.15 202.84 300 206.02 300.24C209.2 300.48 212.81 298.45 213.08 295.24C213.4 291.57 209.55 289.06 207.75 285.84C205.39 281.62 206.69 276.39 207.92 271.71C211.021 259.931 213.287 247.948 214.7 235.85C211.87 234.69 203.63 229.5 200.7 230.36C197.4 231.36 194.42 240.59 192.95 243.6C187.981 253.63 183.721 263.995 180.2 274.62Z" fill="#F1AF8C"/>
<path d="M206.67 195.47C203.09 205.64 199.29 215.84 193.55 224.98C193.342 225.245 193.232 225.573 193.24 225.91C193.331 226.227 193.529 226.502 193.8 226.69C199.57 231.74 205.8 237.01 213.39 238.1C213.885 238.214 214.403 238.169 214.87 237.97C215.308 237.659 215.631 237.213 215.79 236.7C220.63 225.49 222.34 213.21 222.18 201.07C222.075 195.006 221.594 188.954 220.74 182.95C220.54 181.49 220.43 175.01 219.16 174.25C217.23 173.11 215.11 177.09 214.27 178.34C210.79 183.55 208.73 189.55 206.67 195.47Z" fill="white"/>
<path d="M222.36 176.09C222.36 176.09 217.85 177.78 214.18 190.48C210.51 203.18 201.75 233.96 201.75 233.96C201.75 233.96 215.3 240.73 218.69 238.19C222.08 235.65 222.36 176.09 222.36 176.09Z" fill="url(#paint0_linear_4227_2281)"/>
<path d="M260.8 163.01C268.18 162.78 275.65 163.14 282.75 165.14C289.85 167.14 296.6 170.92 301.26 176.65C306.42 182.99 308.68 191.28 309.2 199.43C309.72 207.58 308.64 215.75 307.82 223.89C305.899 242.943 305.391 262.112 306.3 281.24C306.52 285.82 309.14 309.73 305.92 313C303.92 315.06 307.92 317.12 305.07 317.8C281.77 323.4 239.91 320.65 217.85 311.31C212.24 308.93 206.61 305.62 203.85 300.2C200.85 294.33 208.95 271.06 209.92 264.53C212.86 244.603 214.98 224.57 216.28 204.43C216.85 195.52 216.19 185.92 218.02 177.17C219.35 170.82 223.44 169.09 229.34 167.53C239.625 164.854 250.178 163.338 260.8 163.01Z" fill="white"/>
<path d="M279.97 267.26C279.2 271.31 278.19 275.54 275.42 278.6C273.229 280.79 270.548 282.428 267.6 283.38C253.7 288.62 237.85 287.8 224.53 294.38C223.59 294.792 222.725 295.356 221.97 296.05C219.4 298.59 220.12 303.05 222.16 306.05C226.69 312.68 235.5 314.54 243.45 315.77C262.51 318.77 281.97 321.22 301.02 318.15C302.056 318.075 303.048 317.696 303.87 317.06C304.527 316.297 304.948 315.359 305.08 314.36C309.4 295.18 306 275.21 305.92 255.55C305.92 244.21 306.92 232.86 306.15 221.55C305.762 214.512 304.299 207.575 301.81 200.98C300.04 196.5 294.86 186.61 291.75 195.79C286.81 210.38 285.39 226.11 283.61 241.32C282.64 249.99 281.6 258.67 279.97 267.26Z" fill="url(#paint1_linear_4227_2281)"/>
<path d="M285.93 302.42H124.31C119.776 302.42 116.1 306.096 116.1 310.63C116.1 315.164 119.776 318.84 124.31 318.84H285.93C290.464 318.84 294.14 315.164 294.14 310.63C294.14 306.096 290.464 302.42 285.93 302.42Z" fill="#2A2879"/>
<path d="M285.93 302.42H124.31C119.776 302.42 116.1 306.096 116.1 310.63C116.1 315.164 119.776 318.84 124.31 318.84H285.93C290.464 318.84 294.14 315.164 294.14 310.63C294.14 306.096 290.464 302.42 285.93 302.42Z" fill="url(#paint2_linear_4227_2281)"/>
<path d="M242.97 178.55C239.66 178.02 237.8 174.69 239.28 166.67C239.44 165.78 239.65 164.92 239.89 164.06C239.89 163.9 239.98 163.74 240.02 163.58C240.38 162.34 240.79 161.1 241.19 159.87C242.303 156.918 242.892 153.795 242.93 150.64C242.84 148.34 242.66 145.95 243.51 143.83C244.327 142.031 245.607 140.481 247.22 139.34C250.79 136.59 261.22 131.42 263.22 138.25C264.11 141.17 263.46 144.57 263.42 147.56C263.22 151.845 264.007 156.118 265.72 160.05C267.9 164.43 251.1 179.85 242.97 178.55Z" fill="#F1AF8C"/>
<path d="M240.62 162.26C240.62 162.26 259.06 155.26 262.62 144.19L242.97 150.62C242.97 150.62 242.5 160.75 240.62 162.26Z" fill="url(#paint3_linear_4227_2281)"/>
<path d="M290.61 186.2C288.728 207.121 292.196 228.178 300.69 247.39C300.941 248.099 301.364 248.734 301.92 249.24C302.817 249.797 303.867 250.056 304.92 249.98C313.146 250.157 321.195 247.573 327.78 242.64C329.78 241.13 331.66 239.2 331.83 236.85C331.835 235.59 331.586 234.342 331.1 233.18C325.995 218.344 320.035 203.817 313.25 189.67C310.73 184.43 307.35 178.29 301.25 175.98C293.91 173.21 291.12 180.72 290.61 186.2Z" fill="white"/>
<path d="M254.88 198.16C260.35 192.39 264.36 185.42 268.32 178.53C270.73 174.33 273.2 169.94 273.54 165.1C273.626 164.55 273.538 163.988 273.29 163.49C273.049 163.143 272.735 162.853 272.37 162.64L264.86 157.55C264.73 162.16 261.42 166.12 257.64 168.77C253.64 171.61 242.19 174.72 244.64 180.61C245.25 182.1 254.24 198.83 254.88 198.16Z" fill="#2A2879"/>
<path d="M242.97 178.55C240.713 182.992 238.205 187.302 235.46 191.46C234.4 193.07 233.21 194.74 231.46 195.46C231.235 195.576 230.978 195.612 230.73 195.56C230.29 195.41 230.19 194.83 230.16 194.37C229.79 186.68 229.43 178.86 231.31 171.37C231.905 168.715 233.005 166.199 234.55 163.96C235.09 163.24 239.41 160.14 241.23 159.81C240.83 161.04 240.42 162.28 240.06 163.52C240 163.636 239.96 163.761 239.94 163.89C239.94 163.89 239.94 163.96 239.94 164C239.7 164.86 239.49 165.72 239.33 166.61C237.83 174.69 239.69 178.02 242.97 178.55Z" fill="#2A2879"/>
<path d="M254.88 198.16C260.35 192.39 264.36 185.42 268.32 178.53C270.73 174.33 273.2 169.94 273.54 165.1C273.626 164.55 273.538 163.988 273.29 163.49C273.049 163.143 272.735 162.853 272.37 162.64L264.86 157.55C264.73 162.16 261.42 166.12 257.64 168.77C253.64 171.61 242.19 174.72 244.64 180.61C245.25 182.1 254.24 198.83 254.88 198.16Z" fill="url(#paint4_linear_4227_2281)"/>
<path d="M242.97 178.55C240.713 182.992 238.205 187.302 235.46 191.46C234.4 193.07 233.21 194.74 231.46 195.46C231.235 195.576 230.978 195.612 230.73 195.56C230.29 195.41 230.19 194.83 230.16 194.37C229.79 186.68 229.43 178.86 231.31 171.37C231.905 168.715 233.005 166.199 234.55 163.96C235.09 163.24 239.41 160.14 241.23 159.81C240.83 161.04 240.42 162.28 240.06 163.52C240 163.636 239.96 163.761 239.94 163.89C239.94 163.89 239.94 163.96 239.94 164C239.7 164.86 239.49 165.72 239.33 166.61C237.83 174.69 239.69 178.02 242.97 178.55Z" fill="url(#paint5_linear_4227_2281)"/>
<path d="M297.61 306.18L341.41 297.81C344 297.31 346.7 296.81 348.75 295.11C351.56 292.85 352.55 288.89 352.14 285.3C351.73 281.71 350.14 278.38 348.56 275.12C342.34 262.24 329.72 239.12 329.64 240.47C321.98 242.09 315.64 242.17 309.06 246.38C307.927 246.992 306.97 247.883 306.28 248.97C303.65 253.97 310.84 261.27 313.28 265.07C314.215 266.285 314.84 267.709 315.1 269.22C315.152 270.288 314.954 271.353 314.52 272.33C312.15 278.15 303.71 281.54 298.52 284.53C291.734 288.633 284.127 291.187 276.24 292.01C270.12 292.53 263.87 291.74 257.89 293.11C254.222 293.984 250.785 295.636 247.812 297.955C244.84 300.274 242.4 303.205 240.66 306.55C244.22 308.81 248.85 307.5 252.95 306.47C260.547 304.586 268.4 303.954 276.2 304.6C281.26 305.03 295.21 310.89 297.61 306.18Z" fill="#F1AF8C"/>
<path d="M229.89 318.85H105.89L73.18 235.85C72.7367 234.743 72.5717 233.544 72.6996 232.358C72.8276 231.172 73.2444 230.036 73.9137 229.049C74.583 228.062 75.4842 227.254 76.5384 226.696C77.5925 226.139 78.7674 225.848 79.96 225.85H177.3C182.014 225.847 186.62 227.265 190.517 229.917C194.414 232.569 197.423 236.334 199.15 240.72L229.89 318.85Z" fill="#2A2879"/>
<path d="M229.89 318.85H105.89L73.18 235.85C72.7367 234.743 72.5717 233.544 72.6996 232.358C72.8276 231.172 73.2444 230.036 73.9137 229.049C74.583 228.062 75.4842 227.254 76.5384 226.696C77.5925 226.139 78.7674 225.848 79.96 225.85H177.3C182.014 225.847 186.62 227.265 190.517 229.917C194.414 232.569 197.423 236.334 199.15 240.72L229.89 318.85Z" fill="url(#paint6_linear_4227_2281)"/>
<path d="M223.59 318.94H105.77L74.69 240.13C74.2763 239.08 74.1254 237.944 74.2504 236.823C74.3754 235.701 74.7725 234.626 75.4073 233.693C76.042 232.76 76.8952 231.995 77.8925 231.467C78.8899 230.938 80.0013 230.661 81.13 230.66H173.59C178.068 230.663 182.442 232.012 186.143 234.532C189.845 237.052 192.704 240.625 194.35 244.79L223.59 318.94Z" fill="url(#paint7_linear_4227_2281)"/>
<path d="M238.97 45.04C241.97 43.28 244.97 41.49 248.36 40.83C251.75 40.17 256.36 40.57 258.65 43.13C255.681 43.3388 252.787 44.1643 250.155 45.5538C247.522 46.9433 245.208 48.8662 243.36 51.2C243.188 51.5033 242.916 51.7368 242.59 51.86C242.311 51.8893 242.03 51.8372 241.78 51.71C240.4 51.19 230.06 53.55 229.46 52.3C229.49 52.3 237.7 45.81 238.97 45.04Z" fill="#2A2879"/>
<path d="M238.97 45.04C241.97 43.28 244.97 41.49 248.36 40.83C251.75 40.17 256.36 40.57 258.65 43.13C255.681 43.3388 252.787 44.1643 250.155 45.5538C247.522 46.9433 245.208 48.8662 243.36 51.2C243.188 51.5033 242.916 51.7368 242.59 51.86C242.311 51.8893 242.03 51.8372 241.78 51.71C240.4 51.19 230.06 53.55 229.46 52.3C229.49 52.3 237.7 45.81 238.97 45.04Z" fill="url(#paint8_linear_4227_2281)"/>
<path d="M216.62 121.3C223.325 121.3 228.76 114.602 228.76 106.34C228.76 98.0778 223.325 91.38 216.62 91.38C209.915 91.38 204.48 98.0778 204.48 106.34C204.48 114.602 209.915 121.3 216.62 121.3Z" fill="#2A2879"/>
<path d="M219.11 121.86C225.312 121.86 230.34 115.664 230.34 108.02C230.34 100.376 225.312 94.1801 219.11 94.1801C212.908 94.1801 207.88 100.376 207.88 108.02C207.88 115.664 212.908 121.86 219.11 121.86Z" fill="#2A2879"/>
<path d="M219.11 121.86C225.312 121.86 230.34 115.664 230.34 108.02C230.34 100.376 225.312 94.1801 219.11 94.1801C212.908 94.1801 207.88 100.376 207.88 108.02C207.88 115.664 212.908 121.86 219.11 121.86Z" fill="url(#paint9_linear_4227_2281)"/>
<path d="M215.16 80.14L217.97 131.55C217.97 131.55 219.22 150.95 238.45 151.14C261.55 151.37 268.58 137.94 272.09 127.72C275.6 117.5 278.77 87.48 272.09 79.18C265.41 70.88 227.82 50.45 215.16 80.14Z" fill="#F1AF8C"/>
<path d="M229.77 49.27C220.71 49.11 210.36 53.34 206.23 61.89C205.239 63.8573 204.699 66.021 204.651 68.2233C204.603 70.4257 205.046 72.611 205.95 74.62C206.282 75.2109 206.544 75.8384 206.73 76.49C206.82 77.2105 206.82 77.9395 206.73 78.66C206.651 80.3971 207.001 82.1268 207.75 83.6964C208.498 85.2661 209.621 86.6273 211.02 87.66C212.61 88.81 214.54 89.53 215.81 91.02L215.32 81.45C215.207 80.9329 215.303 80.392 215.588 79.9459C215.873 79.4998 216.323 79.1848 216.84 79.07L222.93 76.23C222.93 76.23 224.81 77.6 225.04 77.71C226.051 78.1404 227.142 78.3484 228.24 78.32C230.627 78.3763 233.014 78.2425 235.38 77.92C240.49 77.19 245.38 75.32 250.15 73.46C249.996 74.9385 249.356 76.3241 248.33 77.4L263.86 80.4C266.135 83.5276 267.968 86.953 269.31 90.58C270.384 93.4149 271.089 96.3757 271.41 99.39C271.826 103.488 271.442 107.628 270.28 111.58C271.336 110.775 272.261 109.81 273.02 108.72C274.424 109.695 275.978 110.435 277.62 110.91C277.962 111.037 278.332 111.068 278.69 111C279.45 110.79 279.61 109.89 279.69 109.17C280.31 102.72 285.11 97.27 287.31 91.11C289.98 83.65 288.63 75.26 284.55 68.35C283.341 66.1605 281.698 64.2412 279.72 62.71C272.57 57.47 262.41 59.87 254.25 57.13C250.37 55.83 247.25 53.36 243.54 51.73C239.42 49.98 234.26 49.35 229.77 49.27Z" fill="#3F3D56"/>
<path d="M229.77 49.27C220.71 49.11 210.36 53.34 206.23 61.89C205.239 63.8573 204.699 66.021 204.651 68.2233C204.603 70.4257 205.046 72.611 205.95 74.62C206.282 75.2109 206.544 75.8384 206.73 76.49C206.82 77.2105 206.82 77.9395 206.73 78.66C206.651 80.3971 207.001 82.1268 207.75 83.6964C208.498 85.2661 209.621 86.6273 211.02 87.66C212.61 88.81 214.54 89.53 215.81 91.02L215.32 81.45C215.207 80.9329 215.303 80.392 215.588 79.9459C215.873 79.4998 216.323 79.1848 216.84 79.07L222.93 76.23C222.93 76.23 224.81 77.6 225.04 77.71C226.051 78.1404 227.142 78.3484 228.24 78.32C230.627 78.3763 233.014 78.2425 235.38 77.92C240.49 77.19 245.38 75.32 250.15 73.46C249.996 74.9385 249.356 76.3241 248.33 77.4L263.86 80.4C266.135 83.5276 267.968 86.953 269.31 90.58C270.384 93.4149 271.089 96.3757 271.41 99.39C271.826 103.488 271.442 107.628 270.28 111.58C271.336 110.775 272.261 109.81 273.02 108.72C274.424 109.695 275.978 110.435 277.62 110.91C277.962 111.037 278.332 111.068 278.69 111C279.45 110.79 279.61 109.89 279.69 109.17C280.31 102.72 285.11 97.27 287.31 91.11C289.98 83.65 288.63 75.26 284.55 68.35C283.341 66.1605 281.698 64.2412 279.72 62.71C272.57 57.47 262.41 59.87 254.25 57.13C250.37 55.83 247.25 53.36 243.54 51.73C239.42 49.98 234.26 49.35 229.77 49.27Z" fill="url(#paint10_linear_4227_2281)"/>
<path d="M283.49 122.99C290.123 122.99 295.5 116.359 295.5 108.18C295.5 100.001 290.123 93.37 283.49 93.37C276.857 93.37 271.48 100.001 271.48 108.18C271.48 116.359 276.857 122.99 283.49 122.99Z" fill="#2A2879"/>
<path d="M283.49 122.99C290.123 122.99 295.5 116.359 295.5 108.18C295.5 100.001 290.123 93.37 283.49 93.37C276.857 93.37 271.48 100.001 271.48 108.18C271.48 116.359 276.857 122.99 283.49 122.99Z" fill="url(#paint11_linear_4227_2281)"/>
<path d="M288.09 122.99C294.723 122.99 300.1 116.359 300.1 108.18C300.1 100.001 294.723 93.37 288.09 93.37C281.457 93.37 276.08 100.001 276.08 108.18C276.08 116.359 281.457 122.99 288.09 122.99Z" fill="#2A2879"/>
<path d="M288.18 94.55L282.18 95.19L280.75 95.34L274.75 65.81C271.63 54.13 264 45.15 254.43 41.67C252.948 41.1532 251.372 40.9655 249.81 41.12L245.72 41.49L247.72 40.96L251.72 39.9C252.97 39.5551 254.264 39.3968 255.56 39.43C266.24 39.82 276.37 48.43 280.04 60.77L288.18 94.55Z" fill="#2A2879"/>
<path d="M288.18 94.55L282.18 95.19L280.75 95.34L274.75 65.81C271.63 54.13 264 45.15 254.43 41.67C252.948 41.1532 251.372 40.9655 249.81 41.12L245.72 41.49L247.72 40.96L251.72 39.9C252.97 39.5551 254.264 39.3968 255.56 39.43C266.24 39.82 276.37 48.43 280.04 60.77L288.18 94.55Z" fill="url(#paint12_linear_4227_2281)"/>
<path d="M288.18 94.55L282.18 95.19L276.18 65.59C273.01 53.79 265.31 44.74 255.65 41.23C254.155 40.6943 252.559 40.5029 250.98 40.67L247.72 40.96L251.72 39.9C252.97 39.5551 254.264 39.3968 255.56 39.43C266.24 39.82 276.37 48.43 280.04 60.77L288.18 94.55Z" fill="#2A2879"/>
<path opacity="0.45" d="M162.27 5.16003H15.64C7.00227 5.16003 0 12.1623 0 20.8V192.98C0 201.618 7.00227 208.62 15.64 208.62H162.27C170.908 208.62 177.91 201.618 177.91 192.98V20.8C177.91 12.1623 170.908 5.16003 162.27 5.16003Z" fill="#2A2879"/>
<path d="M53.65 189.16C68.3519 189.16 80.27 177.242 80.27 162.54C80.27 147.838 68.3519 135.92 53.65 135.92C38.9482 135.92 27.03 147.838 27.03 162.54C27.03 177.242 38.9482 189.16 53.65 189.16Z" fill="url(#paint13_linear_4227_2281)"/>
<path d="M129.56 24.45H15.85V30.85H129.56V24.45Z" fill="#2A2879"/>
<path opacity="0.51" d="M132.99 108.61H19.28V115.01H132.99V108.61Z" fill="#2A2879"/>
<path d="M100.11 97.66H19.28V104.06H100.11V97.66Z" fill="#2A2879"/>
<path d="M165.28 97.66H111.17V104.06H165.28V97.66Z" fill="#2A2879"/>
<path d="M165.1 57.15H81.9V62.84H165.1V57.15Z" fill="#2A2879"/>
<path opacity="0.51" d="M153.48 67.24H64.47V72.93H153.48V67.24Z" fill="#2A2879"/>
<path d="M75.55 57.15H20.83V62.84H75.55V57.15Z" fill="#2A2879"/>
<path d="M165.1 77.04H44.83V82.73H165.1V77.04Z" fill="#2A2879"/>
<path opacity="0.51" d="M38.49 77.04H20.83V82.73H38.49V77.04Z" fill="#2A2879"/>
<path opacity="0.51" d="M165.09 87.14H85.71V92.83H165.09V87.14Z" fill="#2A2879"/>
<path d="M75.55 87.14H20.83V92.83H75.55V87.14Z" fill="#2A2879"/>
<path d="M56.02 67H20.83V72.69H56.02V67Z" fill="#2A2879"/>
<path d="M59.55 145.04C57.99 146.95 57.73 149.62 58.02 152.04C58.1103 152.479 58.1103 152.931 58.02 153.37C57.8874 153.739 57.6835 154.079 57.42 154.37C53.1826 159.637 48.4364 164.474 43.25 168.81C43.1041 168.951 42.9304 169.06 42.74 169.13C42.4005 169.2 42.0472 169.151 41.74 168.99C40.24 168.4 38.63 167.76 37.06 168.14C36.3486 168.353 35.6976 168.731 35.1605 169.244C34.6234 169.756 34.2154 170.389 33.97 171.09C33.4849 172.503 33.4053 174.024 33.74 175.48C35.4467 174.06 37.2234 172.727 39.07 171.48L41.7 174.09C41.8366 174.194 41.9485 174.327 42.028 174.479C42.1075 174.631 42.1526 174.799 42.16 174.97C42.1088 175.175 42.0015 175.362 41.85 175.51L37.97 180.09C39.2462 180.601 40.6381 180.752 41.9941 180.526C43.3501 180.3 44.6181 179.707 45.66 178.81C47.66 176.91 47.96 173.36 46 171.45L60.89 154.76C61.8938 155.502 63.1136 155.895 64.3619 155.877C65.6103 155.859 66.8182 155.431 67.8 154.66C68.7535 153.854 69.4907 152.823 69.9447 151.66C70.3987 150.497 70.5552 149.239 70.4 148C68.5467 149.111 66.8285 150.433 65.28 151.94L62.28 148.2C63.34 147.2 67.45 144.44 64.78 143.36C63.02 142.65 60.69 143.65 59.55 145.04Z" fill="#2A2879"/>
<path d="M145.74 172.02L147.17 167.47C147.17 167.47 141.52 163.01 141.35 163.29L141.12 160L146.29 154.5L143.91 150.37C143.91 150.37 136.91 151.51 136.91 151.83C135.559 150.56 134.104 149.406 132.56 148.38L132.34 140.88L127.74 139.63C127.74 139.63 123.53 145.47 123.81 145.63C123.81 145.63 120.57 146.31 119.02 146.8L113.78 142.34L109.78 144.92C109.78 144.92 110.97 150.49 111.44 151.66C110.32 152.89 108.92 154.28 108.92 154.28L101.46 155.48L100.82 160.2C100.82 160.2 106.07 163.04 107.09 163.33C107.111 164.859 107.347 166.377 107.79 167.84L103.72 174.1L106.79 177.74C106.79 177.74 110.86 176.31 112.63 175.53C114.28 177.03 116.63 178.81 116.63 178.81L118.51 186.13L123.27 186.33C123.27 186.33 125.56 181 125.8 179.83C127.331 179.659 128.875 179.639 130.41 179.77L137.1 183.28L140.45 179.88C139.483 177.719 138.405 175.609 137.22 173.56C137.645 173.044 138.029 172.495 138.37 171.92L145.74 172.02ZM123.54 172.19C121.669 172.192 119.839 171.639 118.282 170.601C116.725 169.562 115.51 168.086 114.793 166.357C114.075 164.629 113.887 162.726 114.251 160.891C114.614 159.055 115.515 157.368 116.837 156.044C118.16 154.72 119.845 153.818 121.681 153.453C123.516 153.087 125.419 153.273 127.148 153.989C128.877 154.705 130.355 155.917 131.395 157.473C132.435 159.029 132.99 160.859 132.99 162.73C132.987 165.236 131.991 167.64 130.22 169.413C128.448 171.186 126.046 172.185 123.54 172.19Z" fill="url(#paint14_linear_4227_2281)"/>
<path d="M208.7 77.55C210.47 74.05 214.31 71.97 218.18 71.34C222.05 70.71 226.01 71.29 229.88 71.88C226.13 74.88 215.66 79.35 215.46 80.15C215.319 81.5658 215.302 82.9912 215.41 84.41C215.55 86.47 215.62 88.63 215.61 90.69C214.644 89.7438 213.562 88.924 212.39 88.25C211.383 87.8614 210.464 87.2729 209.69 86.52C208.679 85.2791 208.047 83.7724 207.871 82.1811C207.696 80.5898 207.983 78.9816 208.7 77.55Z" fill="url(#paint15_linear_4227_2281)"/>
<path d="M259.63 144.08C255.113 143.989 250.632 143.241 246.33 141.86C245.821 141.708 245.393 141.359 245.141 140.891C244.889 140.423 244.833 139.874 244.985 139.365C245.138 138.856 245.486 138.428 245.954 138.176C246.422 137.924 246.971 137.868 247.48 138.02C257.78 141.12 265.53 140.71 270.48 136.8C277.22 131.51 276.78 121.43 276.78 121.33C276.753 120.8 276.939 120.28 277.295 119.887C277.651 119.493 278.15 119.257 278.68 119.23C279.21 119.204 279.73 119.389 280.124 119.745C280.517 120.101 280.753 120.6 280.78 121.13C280.78 121.62 281.31 133.4 272.95 139.96C269.47 142.7 265.03 144.073 259.63 144.08Z" fill="#2A2879"/>
<path d="M259.63 144.08C255.113 143.989 250.632 143.241 246.33 141.86C245.821 141.708 245.393 141.359 245.141 140.891C244.889 140.423 244.833 139.874 244.985 139.365C245.138 138.856 245.486 138.428 245.954 138.176C246.422 137.924 246.971 137.868 247.48 138.02C257.78 141.12 265.53 140.71 270.48 136.8C277.22 131.51 276.78 121.43 276.78 121.33C276.753 120.8 276.939 120.28 277.295 119.887C277.651 119.493 278.15 119.257 278.68 119.23C279.21 119.204 279.73 119.389 280.124 119.745C280.517 120.101 280.753 120.6 280.78 121.13C280.78 121.62 281.31 133.4 272.95 139.96C269.47 142.7 265.03 144.073 259.63 144.08Z" fill="url(#paint16_linear_4227_2281)"/>
<path d="M247.37 134.64C248.517 135.217 249.417 136.19 249.9 137.38C250.34 139.08 249.02 140.71 247.66 141.82C246.491 142.862 245.053 143.555 243.51 143.82C241.25 144.09 239.09 142.87 237.21 141.58C236.161 140.94 235.266 140.076 234.59 139.05C232.85 135.99 235.1 132.05 238.05 130.75C241.32 129.34 244.8 132.95 247.37 134.64Z" fill="#2A2879"/>
<path d="M247.37 134.64C248.517 135.217 249.417 136.19 249.9 137.38C250.34 139.08 249.02 140.71 247.66 141.82C246.491 142.862 245.053 143.555 243.51 143.82C241.25 144.09 239.09 142.87 237.21 141.58C236.161 140.94 235.266 140.076 234.59 139.05C232.85 135.99 235.1 132.05 238.05 130.75C241.32 129.34 244.8 132.95 247.37 134.64Z" fill="url(#paint17_linear_4227_2281)"/>
</g>
<defs>
<linearGradient id="paint0_linear_4227_2281" x1="266.71" y1="205.35" x2="198.21" y2="208.36" gradientUnits="userSpaceOnUse">
<stop offset="0.01"/>
<stop offset="1" stop-opacity="0"/>
</linearGradient>
<linearGradient id="paint1_linear_4227_2281" x1="437.64" y1="414.24" x2="215.19" y2="208.74" gradientUnits="userSpaceOnUse">
<stop offset="0.01"/>
<stop offset="1" stop-opacity="0"/>
</linearGradient>
<linearGradient id="paint2_linear_4227_2281" x1="204.74" y1="304.22" x2="206.43" y2="332.73" gradientUnits="userSpaceOnUse">
<stop offset="0.01"/>
<stop offset="1" stop-opacity="0"/>
</linearGradient>
<linearGradient id="paint3_linear_4227_2281" x1="255.2" y1="125.22" x2="249.36" y2="170.95" gradientUnits="userSpaceOnUse">
<stop offset="0.01"/>
<stop offset="1" stop-opacity="0"/>
</linearGradient>
<linearGradient id="paint4_linear_4227_2281" x1="249.72" y1="167.25" x2="270.89" y2="187.29" gradientUnits="userSpaceOnUse">
<stop offset="0.02" stop-color="white" stop-opacity="0"/>
<stop offset="0.58" stop-color="white" stop-opacity="0.39"/>
<stop offset="1" stop-color="white"/>
</linearGradient>
<linearGradient id="paint5_linear_4227_2281" x1="246.38" y1="177.02" x2="225.91" y2="178.43" gradientUnits="userSpaceOnUse">
<stop offset="0.02" stop-color="white" stop-opacity="0"/>
<stop offset="0.58" stop-color="white" stop-opacity="0.39"/>
<stop offset="1" stop-color="white"/>
</linearGradient>
<linearGradient id="paint6_linear_4227_2281" x1="241.53" y1="115.56" x2="139.91" y2="295.1" gradientUnits="userSpaceOnUse">
<stop offset="0.01"/>
<stop offset="1" stop-opacity="0"/>
</linearGradient>
<linearGradient id="paint7_linear_4227_2281" x1="177.25" y1="357.75" x2="115.15" y2="184.99" gradientUnits="userSpaceOnUse">
<stop offset="0.01"/>
<stop offset="0.09" stop-opacity="0.82"/>
<stop offset="1" stop-opacity="0"/>
</linearGradient>
<linearGradient id="paint8_linear_4227_2281" x1="242.96" y1="35.91" x2="245.03" y2="57.55" gradientUnits="userSpaceOnUse">
<stop offset="0.01"/>
<stop offset="1" stop-opacity="0"/>
</linearGradient>
<linearGradient id="paint9_linear_4227_2281" x1="224.6" y1="86.5301" x2="214.15" y2="127.47" gradientUnits="userSpaceOnUse">
<stop offset="0.01"/>
<stop offset="1" stop-opacity="0"/>
</linearGradient>
<linearGradient id="paint10_linear_4227_2281" x1="267.42" y1="65.37" x2="250.49" y2="78.92" gradientUnits="userSpaceOnUse">
<stop offset="0.01"/>
<stop offset="1" stop-opacity="0"/>
</linearGradient>
<linearGradient id="paint11_linear_4227_2281" x1="285.59" y1="107.76" x2="271.24" y2="110.63" gradientUnits="userSpaceOnUse">
<stop offset="0.01"/>
<stop offset="1" stop-opacity="0"/>
</linearGradient>
<linearGradient id="paint12_linear_4227_2281" x1="287.57" y1="59.1" x2="255.11" y2="73.22" gradientUnits="userSpaceOnUse">
<stop offset="0.01"/>
<stop offset="1" stop-opacity="0"/>
</linearGradient>
<linearGradient id="paint13_linear_4227_2281" x1="58.42" y1="67.19" x2="52.45" y2="186.54" gradientUnits="userSpaceOnUse">
<stop offset="0.02" stop-color="white" stop-opacity="0"/>
<stop offset="0.58" stop-color="white" stop-opacity="0.39"/>
<stop offset="0.68" stop-color="white" stop-opacity="0.68"/>
<stop offset="1" stop-color="white"/>
</linearGradient>
<linearGradient id="paint14_linear_4227_2281" x1="148.89" y1="103.19" x2="125.18" y2="159.93" gradientUnits="userSpaceOnUse">
<stop offset="0.02" stop-color="white" stop-opacity="0"/>
<stop offset="0.58" stop-color="white" stop-opacity="0.39"/>
<stop offset="0.68" stop-color="white" stop-opacity="0.68"/>
<stop offset="1" stop-color="white"/>
</linearGradient>
<linearGradient id="paint15_linear_4227_2281" x1="217.63" y1="93.93" x2="219.7" y2="64.38" gradientUnits="userSpaceOnUse">
<stop offset="0.01"/>
<stop offset="1" stop-opacity="0"/>
</linearGradient>
<linearGradient id="paint16_linear_4227_2281" x1="258" y1="120.59" x2="268.3" y2="141.76" gradientUnits="userSpaceOnUse">
<stop offset="0.02" stop-color="white" stop-opacity="0"/>
<stop offset="0.58" stop-color="white" stop-opacity="0.39"/>
<stop offset="0.68" stop-color="white" stop-opacity="0.68"/>
<stop offset="1" stop-color="white"/>
</linearGradient>
<linearGradient id="paint17_linear_4227_2281" x1="247.02" y1="126.96" x2="234.6" y2="151.99" gradientUnits="userSpaceOnUse">
<stop offset="0.01"/>
<stop offset="1" stop-opacity="0"/>
</linearGradient>
<clipPath id="clip0_4227_2281">
<rect width="406.39" height="320.69" fill="white"/>
</clipPath>
</defs>
</svg>
